<svg width="512" height="512" viewBox="0 0 512 512" fill="none" xmlns="http://www.w3.org/2000/svg">
<path d="M512 256C512 114.6 397.4 0 256 0C114.6 0 0 114.6 0 256C0 383.79 93.56 489.7 216.02 508.91V330.06H151.07V256H216.02V199.61C216.02 135.5 254.17 100.02 312.67 100.02C340.72 100.02 370.04 105.07 370.04 105.07V168.05H337.78C305.94 168.05 296.12 187.83 296.12 208.03V256H367.1L355.74 330.06H296.12V508.91C418.44 489.7 512 383.79 512 256Z" fill="#002e39"/>
<path d="M355.59 330.06L366.96 256H295.98V208.03C295.98 187.83 305.94 168.05 337.64 168.05H369.9V105.07C369.9 105.07 340.58 100.02 312.53 100.02C254.04 100.02 215.88 135.51 215.88 199.61V256H150.93V330.06H215.88V508.91C228.93 511.01 242.25 512 255.86 512C269.47 512 282.79 510.88 295.84 508.91V330.06H355.59Z" fill="white"/>
</svg>
