<svg width="113" height="113" viewBox="0 0 113 113" fill="none" xmlns="http://www.w3.org/2000/svg">
<path d="M56.098 112.196C87.0801 112.196 112.196 87.0801 112.196 56.098C112.196 25.1159 87.0801 0 56.098 0C25.1159 0 0 25.1159 0 56.098C0 87.0801 25.1159 112.196 56.098 112.196Z" fill="#002e39"/>
<path d="M89.6161 60.612V83.74H76.2071V62.162C76.2071 56.744 74.2711 53.044 69.4161 53.044C65.7111 53.044 63.5101 55.535 62.5381 57.947C62.1851 58.809 62.0941 60.006 62.0941 61.215V83.739H48.6841C48.6841 83.739 48.8641 47.193 48.6841 43.41H62.0951V49.125C62.0681 49.17 62.0301 49.214 62.0061 49.257H62.0951V49.125C63.8771 46.383 67.0551 42.463 74.1801 42.463C83.0021 42.463 89.6161 48.227 89.6161 60.612ZM34.6561 23.97C30.0691 23.97 27.0681 26.981 27.0681 30.937C27.0681 34.809 29.9821 37.907 34.4801 37.907H34.5671C39.2441 37.907 42.1521 34.809 42.1521 30.937C42.0631 26.981 39.2441 23.97 34.6561 23.97ZM27.8651 83.74H41.2701V43.41H27.8651V83.74Z" fill="#F1F2F2"/>
</svg>
