<svg width="510" height="512" viewBox="0 0 510 512" fill="none" xmlns="http://www.w3.org/2000/svg">

<path d="M8.79004 503.21L43.56 376.29C22.06 339.15 10.89 296.98 10.89 253.84C10.89 118.82 120.77 8.93994 255.79 8.93994C321.27 8.93994 382.85 34.4899 429.06 80.7099C475.28 127.07 500.83 188.5 500.69 253.98C500.69 389 390.81 498.88 255.79 498.88H255.65C214.6 498.88 174.39 488.55 138.65 469.14L8.79004 503.21Z" fill="#002e39"/>
<path d="M0 512.01L36.02 380.62C13.82 342.08 2.09 298.52 2.09 253.7C2.09 113.8 116.02 0 255.79 0C323.65 0 387.32 26.39 435.35 74.42C483.24 122.31 509.63 186.12 509.63 253.84C509.63 393.74 395.7 507.54 255.93 507.54H255.79C213.34 507.54 171.6 496.93 134.6 476.68L0 512.01ZM140.74 430.89L148.42 435.5C180.81 454.77 217.95 464.82 255.79 464.96H255.93C372.24 464.96 466.76 370.43 466.76 254.13C466.76 197.72 444.84 144.8 405.05 105.01C365.26 65.22 312.34 43.16 255.93 43.16C139.62 43.16 44.96 137.69 44.96 253.99C44.96 293.78 56.13 332.6 77.21 366.25L82.24 374.21L60.88 451.98L140.74 430.89Z" fill="url(#paint1_linear_488_50)"/>
<path d="M192.4 147.73C187.65 137.12 182.63 136.98 178.16 136.84C174.53 136.7 170.2 136.7 166.01 136.7C161.82 136.7 154.98 138.24 149.12 144.66C143.26 150.94 126.92 166.3 126.92 197.58C126.92 228.72 149.68 258.87 152.75 263.2C155.96 267.39 196.59 333.43 261.1 358.84C314.72 379.92 325.61 375.73 337.19 374.76C348.78 373.64 374.75 359.4 380.05 344.6C385.36 329.8 385.36 317.09 383.68 314.44C382.14 311.79 377.82 310.25 371.53 307.04C365.25 303.83 333.97 288.47 328.25 286.38C322.39 284.29 318.2 283.17 314.01 289.59C309.82 295.87 297.67 310.25 293.9 314.44C290.27 318.63 286.5 319.19 280.22 315.98C273.94 312.77 253.41 306.07 229.26 284.56C210.41 267.81 197.71 247 193.94 240.72C190.31 234.44 193.52 230.95 196.73 227.74C199.52 224.95 203.01 220.34 206.22 216.57C209.43 212.8 210.41 210.29 212.5 205.96C214.59 201.77 213.62 198 211.94 194.79C210.41 191.57 198.12 160.3 192.4 147.73Z" fill="white"/>
<defs>
<linearGradient id="paint0_linear_488_50" x1="254.741" y1="503.214" x2="254.741" y2="8.94583" gradientUnits="userSpaceOnUse">
<stop stop-color="#20B038"/>
<stop offset="1" stop-color="#60D66A"/>
</linearGradient>
<linearGradient id="paint1_linear_488_50" x1="254.81" y1="512.01" x2="254.81" y2="0.0100098" gradientUnits="userSpaceOnUse">
<stop stop-color="#F9F9F9"/>
<stop offset="1" stop-color="white"/>
</linearGradient>
</defs>
</svg>
